<?xml version="1.0" encoding="UTF-8" standalone="no"?>
<!DOCTYPE svg PUBLIC "-//W3C//DTD SVG 1.1//EN" "http://www.w3.org/Graphics/SVG/1.1/DTD/svg11.dtd">
<svg xmlns="http://www.w3.org/2000/svg" version="1.1" viewBox="-8026 -7954 116117 115929">
<style>rect { fill: #cf1313; } polygon { fill: #396326; stroke: #396326; }</style>
<polygon stroke-width="1" points="97924,50397 97924,51628 98415,51628 98415,52850 98292,52850 98292,54078 98276,54078 98276,55288 98043,55288 98043,56423 97303,56423 97303,57711 97692,57711 97692,58821 96973,58821 96973,60116 97239,60116 97239,61228 96629,61228 96629,62473 96581,62473 96581,63611 96121,63611 96121,64861 96028,64861 96028,65764 94900,65764 94900,67161 95183,67161 95183,68139 94341,68139 94341,69483 94384,69483 94384,70602 93878,70602 93878,71361 92651,71361 92651,72634 92470,72634 92470,73502 91529,73502 91529,74935 91566,74935 91566,75703 90486,75703 90486,76625 89679,76625 89679,77482 88795,77482 88795,78448 88075,78448 88075,79469 87427,79469 87427,80940 87309,80940 87309,81352 85915,81352 85915,82359 85225,82359 85225,83372 84529,83372 84529,84413 83848,84413 83848,84973 82697,84973 82697,85857 81860,85857 81860,86358 80693,86358 80693,87278 79886,87278 79886,88018 78928,88018 78928,89234 78313,89234 78313,89561 77051,89561 77051,90688 76335,90688 76335,91332 75289,91332 75289,91489 73962,91489 73962,92160 72945,92160 72945,92340 71672,92340 71672,93077 70689,93077 70689,93624 69607,93624 69607,94386 68613,94386 68613,94825 67476,94825 67476,95271 66341,95271 66341,95771 65222,95771 65222,96253 64092,96253 64092,96442 62873,96442 62873,96830 61712,96830 61712,97260 60555,97260 60555,97242 59301,97242 59301,97199 58056,97199 58056,97224 56834,97224 56834,97907 55698,97907 55698,97847 54465,97847 54465,97941 53251,97941 53251,98315 52049,98315 52049,97884 50816,97884 50816,98050 49601,98050 49601,97738 48394,97738 48394,97503 47196,97503 47196,97878 45954,97878 45954,97660 44754,97660 44754,97727 43519,97727 43519,97225 42364,97225 42364,97121 41150,97121 41150,97347 39860,97347 39860,96656 38765,96656 38765,95899 37709,95899 37709,96368 36315,96368 36315,95856 35193,95856 35193,94957 34215,94957 34215,94420 33128,94420 33128,94259 31893,94259 31893,94403 30507,94403 30507,93364 29638,93364 29638,92743 28592,92743 28592,92645 27272,92645 27272,91967 26249,91967 26249,91324 25210,91324 25210,90253 24444,90253 24444,90070 23112,90070 23112,89351 22123,89351 22123,88789 21018,88789 21018,87886 20168,87886 20168,86962 19347,86962 19347,86043 18535,86043 18535,85116 17740,85116 17740,84601 16558,84601 16558,83509 15930,83509 15930,82715 15007,82715 15007,82025 13957,82025 13957,81151 13098,81151 13098,79859 12754,79859 12754,79147 11692,79147 11692,77947 11271,77947 11271,77372 9969,77372 9969,75883 10009,75883 10009,75017 9112,75017 9112,74052 8356,74052 8356,73174 7420,73174 7420,71902 7208,71902 7208,70981 6313,70981 6313,69530 6548,69530 6548,68561 5737,68561 5737,67493 5130,67493 5130,66441 4451,66441 4451,65197 4304,65197 4304,64071 3813,64071 3813,62733 4061,62733 4061,61563 3763,61563 3763,60526 2868,60526 2868,59320 2658,59320 2658,58003 3110,58003 3110,56912 2236,56912 2236,55612 2815,55612 2815,54463 2176,54463 2176,53256 1991,53256 1991,52027 2191,52027 2191,50822 1746,50822 1746,50372 94926,50372 94926,48373 1650,48373 1650,47151 1748,47151 1748,45959 2182,45959 2182,44724 2070,44724 2070,43482 2000,43482 2000,42352 2701,42352 2701,41171 2990,41171 2990,39906 2866,39906 2866,38738 3231,38738 3231,37620 3768,37620 3768,36462 4129,36462 4129,35396 4769,35396 4769,34029 4511,34029 4511,32910 5004,32910 5004,31796 5503,31796 5503,30544 5679,30544 5679,29790 6959,29790 6959,28477 7028,28477 7028,27438 7667,27438 7667,26258 8049,26258 8049,25547 9236,25547 9236,24498 9831,24498 9831,23395 10350,23395 10350,22054 10551,22054 10551,21180 11427,21180 11427,20298 12278,20298 12278,19275 12950,19275 12950,18389 13789,18389 13789,17359 14468,17359 14468,16786 15633,16786 15633,15459 16026,15459 16026,14915 17198,14915 17198,14289 18270,14289 18270,13257 18983,13257 18983,12899 20257,12899 20257,11476 20687,11476 20687,11226 22019,11226 22019,10137 22742,10137 22742,9365 23699,9365 23699,8665 24708,8665 24708,8556 26063,8556 26063,7609 26928,7609 26928,7486 28239,7486 28239,6654 29181,6654 29181,6166 30298,6166 30298,5931 31519,5931 31519,5378 32603,5378 32603,5291 33861,5291 33861,4883 34995,4883 34995,4410 36109,4410 36109,3349 37068,3349 37068,2952 38233,2952 38233,3324 39575,3324 39575,2539 40655,2539 40655,3047 41985,3047 41985,2019 43056,2019 43056,2589 44360,2589 44360,1841 45505,1841 45505,2455 46775,2455 46775,1706 47951,1706 47951,2282 49186,2282 49186,1769 50399,1769 50399,2442 51599,2442 51599,2360 52811,2360 52811,2429 54019,2429 54019,1925 55291,1925 55291,2650 56429,2650 56429,2307 57711,2307 57711,2657 58890,2657 58890,3006 60063,3006 60063,2863 61350,2863 61350,3206 62530,3206 62530,3937 63593,3937 63593,4278 64762,4278 64762,4357 66024,4357 66024,5363 66953,5363 66953,5729 68110,5729 68110,6224 69216,6224 69216,6704 70329,6704 70329,7396 71337,7396 71337,8022 72371,8022 72371,7912 73818,7912 73818,8887 74662,8887 74662,9895 75460,9895 75460,10341 76610,10341 76610,10916 77686,10916 77686,11166 79014,11166 79014,12141 79809,12141 79809,12986 80694,12986 80694,13676 81709,13676 81709,14453 82654,14453 82654,15685 83163,15685 83163,16111 84454,16111 84454,17061 85231,17061 85231,18137 85860,18137 85860,19057 86653,19057 86653,19729 87758,19729 87758,20935 88197,20935 88197,22019 88774,22019 88774,23062 89394,23062 89394,23670 90679,23670 90679,25126 90652,25126 90652,26103 91374,26103 91374,27203 91885,27203 91885,27989 93001,27989 93001,29416 92856,29416 92856,30167 94124,30167 94124,31508 94095,31508 94095,32411 95112,32411 95112,33829 94797,33829 94797,34839 95584,34839 95584,35890 96309,35890 96309,37146 96368,37146 96368,38359 96544,38359 96544,39540 96830,39540 96830,40764 96909,40764 96909,41928 97289,41928 97289,43153 97305,43153 97305,44320 97745,44320 97745,45563 97541,45563 97541,46736 98122,46736 98122,47964 98003,47964 98003,49176 98319,49176 98319,50397" />
<g>
  <rect width="1" height="1" x="97923.5" y="50396.5" />
  <rect width="1" height="1" x="97923.5" y="51627.5" />
  <rect width="1" height="1" x="98414.5" y="51627.5" />
  <rect width="1" height="1" x="98414.5" y="52849.5" />
  <rect width="1" height="1" x="98291.5" y="52849.5" />
  <rect width="1" height="1" x="98291.5" y="54077.5" />
  <rect width="1" height="1" x="98275.5" y="54077.5" />
  <rect width="1" height="1" x="98275.5" y="55287.5" />
  <rect width="1" height="1" x="98042.5" y="55287.5" />
  <rect width="1" height="1" x="98042.5" y="56422.5" />
  <rect width="1" height="1" x="97302.5" y="56422.5" />
  <rect width="1" height="1" x="97302.5" y="57710.5" />
  <rect width="1" height="1" x="97691.5" y="57710.5" />
  <rect width="1" height="1" x="97691.5" y="58820.5" />
  <rect width="1" height="1" x="96972.5" y="58820.5" />
  <rect width="1" height="1" x="96972.5" y="60115.5" />
  <rect width="1" height="1" x="97238.5" y="60115.5" />
  <rect width="1" height="1" x="97238.5" y="61227.5" />
  <rect width="1" height="1" x="96628.5" y="61227.5" />
  <rect width="1" height="1" x="96628.5" y="62472.5" />
  <rect width="1" height="1" x="96580.5" y="62472.5" />
  <rect width="1" height="1" x="96580.5" y="63610.5" />
  <rect width="1" height="1" x="96120.5" y="63610.5" />
  <rect width="1" height="1" x="96120.5" y="64860.5" />
  <rect width="1" height="1" x="96027.5" y="64860.5" />
  <rect width="1" height="1" x="96027.5" y="65763.5" />
  <rect width="1" height="1" x="94899.5" y="65763.5" />
  <rect width="1" height="1" x="94899.5" y="67160.5" />
  <rect width="1" height="1" x="95182.5" y="67160.5" />
  <rect width="1" height="1" x="95182.5" y="68138.5" />
  <rect width="1" height="1" x="94340.5" y="68138.5" />
  <rect width="1" height="1" x="94340.5" y="69482.5" />
  <rect width="1" height="1" x="94383.5" y="69482.5" />
  <rect width="1" height="1" x="94383.5" y="70601.5" />
  <rect width="1" height="1" x="93877.5" y="70601.5" />
  <rect width="1" height="1" x="93877.5" y="71360.5" />
  <rect width="1" height="1" x="92650.5" y="71360.5" />
  <rect width="1" height="1" x="92650.5" y="72633.5" />
  <rect width="1" height="1" x="92469.5" y="72633.5" />
  <rect width="1" height="1" x="92469.5" y="73501.5" />
  <rect width="1" height="1" x="91528.5" y="73501.5" />
  <rect width="1" height="1" x="91528.5" y="74934.5" />
  <rect width="1" height="1" x="91565.5" y="74934.5" />
  <rect width="1" height="1" x="91565.5" y="75702.5" />
  <rect width="1" height="1" x="90485.5" y="75702.5" />
  <rect width="1" height="1" x="90485.5" y="76624.5" />
  <rect width="1" height="1" x="89678.5" y="76624.5" />
  <rect width="1" height="1" x="89678.5" y="77481.5" />
  <rect width="1" height="1" x="88794.5" y="77481.5" />
  <rect width="1" height="1" x="88794.5" y="78447.5" />
  <rect width="1" height="1" x="88074.5" y="78447.5" />
  <rect width="1" height="1" x="88074.5" y="79468.5" />
  <rect width="1" height="1" x="87426.5" y="79468.5" />
  <rect width="1" height="1" x="87426.5" y="80939.5" />
  <rect width="1" height="1" x="87308.5" y="80939.5" />
  <rect width="1" height="1" x="87308.5" y="81351.5" />
  <rect width="1" height="1" x="85914.5" y="81351.5" />
  <rect width="1" height="1" x="85914.5" y="82358.5" />
  <rect width="1" height="1" x="85224.5" y="82358.5" />
  <rect width="1" height="1" x="85224.5" y="83371.5" />
  <rect width="1" height="1" x="84528.5" y="83371.5" />
  <rect width="1" height="1" x="84528.5" y="84412.5" />
  <rect width="1" height="1" x="83847.5" y="84412.5" />
  <rect width="1" height="1" x="83847.5" y="84972.5" />
  <rect width="1" height="1" x="82696.5" y="84972.5" />
  <rect width="1" height="1" x="82696.5" y="85856.5" />
  <rect width="1" height="1" x="81859.5" y="85856.5" />
  <rect width="1" height="1" x="81859.5" y="86357.5" />
  <rect width="1" height="1" x="80692.5" y="86357.5" />
  <rect width="1" height="1" x="80692.5" y="87277.5" />
  <rect width="1" height="1" x="79885.5" y="87277.5" />
  <rect width="1" height="1" x="79885.5" y="88017.5" />
  <rect width="1" height="1" x="78927.5" y="88017.5" />
  <rect width="1" height="1" x="78927.5" y="89233.5" />
  <rect width="1" height="1" x="78312.5" y="89233.5" />
  <rect width="1" height="1" x="78312.5" y="89560.5" />
  <rect width="1" height="1" x="77050.5" y="89560.5" />
  <rect width="1" height="1" x="77050.5" y="90687.5" />
  <rect width="1" height="1" x="76334.5" y="90687.5" />
  <rect width="1" height="1" x="76334.5" y="91331.5" />
  <rect width="1" height="1" x="75288.5" y="91331.5" />
  <rect width="1" height="1" x="75288.5" y="91488.5" />
  <rect width="1" height="1" x="73961.5" y="91488.5" />
  <rect width="1" height="1" x="73961.5" y="92159.5" />
  <rect width="1" height="1" x="72944.5" y="92159.5" />
  <rect width="1" height="1" x="72944.5" y="92339.5" />
  <rect width="1" height="1" x="71671.5" y="92339.5" />
  <rect width="1" height="1" x="71671.5" y="93076.5" />
  <rect width="1" height="1" x="70688.5" y="93076.5" />
  <rect width="1" height="1" x="70688.5" y="93623.5" />
  <rect width="1" height="1" x="69606.5" y="93623.5" />
  <rect width="1" height="1" x="69606.5" y="94385.5" />
  <rect width="1" height="1" x="68612.5" y="94385.5" />
  <rect width="1" height="1" x="68612.5" y="94824.5" />
  <rect width="1" height="1" x="67475.5" y="94824.5" />
  <rect width="1" height="1" x="67475.5" y="95270.5" />
  <rect width="1" height="1" x="66340.5" y="95270.5" />
  <rect width="1" height="1" x="66340.5" y="95770.5" />
  <rect width="1" height="1" x="65221.5" y="95770.5" />
  <rect width="1" height="1" x="65221.5" y="96252.5" />
  <rect width="1" height="1" x="64091.5" y="96252.5" />
  <rect width="1" height="1" x="64091.5" y="96441.5" />
  <rect width="1" height="1" x="62872.5" y="96441.5" />
  <rect width="1" height="1" x="62872.5" y="96829.5" />
  <rect width="1" height="1" x="61711.5" y="96829.5" />
  <rect width="1" height="1" x="61711.5" y="97259.5" />
  <rect width="1" height="1" x="60554.5" y="97259.5" />
  <rect width="1" height="1" x="60554.5" y="97241.5" />
  <rect width="1" height="1" x="59300.5" y="97241.5" />
  <rect width="1" height="1" x="59300.5" y="97198.5" />
  <rect width="1" height="1" x="58055.5" y="97198.5" />
  <rect width="1" height="1" x="58055.5" y="97223.5" />
  <rect width="1" height="1" x="56833.5" y="97223.5" />
  <rect width="1" height="1" x="56833.5" y="97906.5" />
  <rect width="1" height="1" x="55697.5" y="97906.5" />
  <rect width="1" height="1" x="55697.5" y="97846.5" />
  <rect width="1" height="1" x="54464.5" y="97846.5" />
  <rect width="1" height="1" x="54464.5" y="97940.5" />
  <rect width="1" height="1" x="53250.5" y="97940.5" />
  <rect width="1" height="1" x="53250.5" y="98314.5" />
  <rect width="1" height="1" x="52048.5" y="98314.5" />
  <rect width="1" height="1" x="52048.5" y="97883.5" />
  <rect width="1" height="1" x="50815.5" y="97883.5" />
  <rect width="1" height="1" x="50815.5" y="98049.5" />
  <rect width="1" height="1" x="49600.5" y="98049.5" />
  <rect width="1" height="1" x="49600.5" y="97737.5" />
  <rect width="1" height="1" x="48393.5" y="97737.5" />
  <rect width="1" height="1" x="48393.5" y="97502.5" />
  <rect width="1" height="1" x="47195.5" y="97502.5" />
  <rect width="1" height="1" x="47195.5" y="97877.5" />
  <rect width="1" height="1" x="45953.5" y="97877.5" />
  <rect width="1" height="1" x="45953.5" y="97659.5" />
  <rect width="1" height="1" x="44753.5" y="97659.5" />
  <rect width="1" height="1" x="44753.5" y="97726.5" />
  <rect width="1" height="1" x="43518.5" y="97726.5" />
  <rect width="1" height="1" x="43518.5" y="97224.5" />
  <rect width="1" height="1" x="42363.5" y="97224.5" />
  <rect width="1" height="1" x="42363.5" y="97120.5" />
  <rect width="1" height="1" x="41149.5" y="97120.5" />
  <rect width="1" height="1" x="41149.5" y="97346.5" />
  <rect width="1" height="1" x="39859.5" y="97346.5" />
  <rect width="1" height="1" x="39859.5" y="96655.5" />
  <rect width="1" height="1" x="38764.5" y="96655.5" />
  <rect width="1" height="1" x="38764.5" y="95898.5" />
  <rect width="1" height="1" x="37708.5" y="95898.5" />
  <rect width="1" height="1" x="37708.5" y="96367.5" />
  <rect width="1" height="1" x="36314.5" y="96367.5" />
  <rect width="1" height="1" x="36314.5" y="95855.5" />
  <rect width="1" height="1" x="35192.5" y="95855.5" />
  <rect width="1" height="1" x="35192.5" y="94956.5" />
  <rect width="1" height="1" x="34214.5" y="94956.5" />
  <rect width="1" height="1" x="34214.5" y="94419.5" />
  <rect width="1" height="1" x="33127.5" y="94419.5" />
  <rect width="1" height="1" x="33127.5" y="94258.5" />
  <rect width="1" height="1" x="31892.5" y="94258.5" />
  <rect width="1" height="1" x="31892.5" y="94402.5" />
  <rect width="1" height="1" x="30506.5" y="94402.5" />
  <rect width="1" height="1" x="30506.5" y="93363.5" />
  <rect width="1" height="1" x="29637.5" y="93363.5" />
  <rect width="1" height="1" x="29637.5" y="92742.5" />
  <rect width="1" height="1" x="28591.5" y="92742.5" />
  <rect width="1" height="1" x="28591.5" y="92644.5" />
  <rect width="1" height="1" x="27271.5" y="92644.5" />
  <rect width="1" height="1" x="27271.5" y="91966.5" />
  <rect width="1" height="1" x="26248.5" y="91966.5" />
  <rect width="1" height="1" x="26248.5" y="91323.5" />
  <rect width="1" height="1" x="25209.5" y="91323.5" />
  <rect width="1" height="1" x="25209.5" y="90252.5" />
  <rect width="1" height="1" x="24443.5" y="90252.5" />
  <rect width="1" height="1" x="24443.5" y="90069.5" />
  <rect width="1" height="1" x="23111.5" y="90069.5" />
  <rect width="1" height="1" x="23111.5" y="89350.5" />
  <rect width="1" height="1" x="22122.5" y="89350.5" />
  <rect width="1" height="1" x="22122.5" y="88788.5" />
  <rect width="1" height="1" x="21017.5" y="88788.5" />
  <rect width="1" height="1" x="21017.5" y="87885.5" />
  <rect width="1" height="1" x="20167.5" y="87885.5" />
  <rect width="1" height="1" x="20167.5" y="86961.5" />
  <rect width="1" height="1" x="19346.5" y="86961.5" />
  <rect width="1" height="1" x="19346.5" y="86042.5" />
  <rect width="1" height="1" x="18534.5" y="86042.5" />
  <rect width="1" height="1" x="18534.5" y="85115.5" />
  <rect width="1" height="1" x="17739.5" y="85115.5" />
  <rect width="1" height="1" x="17739.5" y="84600.5" />
  <rect width="1" height="1" x="16557.5" y="84600.5" />
  <rect width="1" height="1" x="16557.5" y="83508.5" />
  <rect width="1" height="1" x="15929.5" y="83508.5" />
  <rect width="1" height="1" x="15929.5" y="82714.5" />
  <rect width="1" height="1" x="15006.5" y="82714.5" />
  <rect width="1" height="1" x="15006.5" y="82024.5" />
  <rect width="1" height="1" x="13956.5" y="82024.5" />
  <rect width="1" height="1" x="13956.5" y="81150.5" />
  <rect width="1" height="1" x="13097.5" y="81150.5" />
  <rect width="1" height="1" x="13097.5" y="79858.5" />
  <rect width="1" height="1" x="12753.5" y="79858.5" />
  <rect width="1" height="1" x="12753.5" y="79146.5" />
  <rect width="1" height="1" x="11691.5" y="79146.5" />
  <rect width="1" height="1" x="11691.5" y="77946.5" />
  <rect width="1" height="1" x="11270.5" y="77946.5" />
  <rect width="1" height="1" x="11270.5" y="77371.5" />
  <rect width="1" height="1" x="9968.5" y="77371.5" />
  <rect width="1" height="1" x="9968.5" y="75882.5" />
  <rect width="1" height="1" x="10008.5" y="75882.5" />
  <rect width="1" height="1" x="10008.5" y="75016.5" />
  <rect width="1" height="1" x="9111.5" y="75016.5" />
  <rect width="1" height="1" x="9111.5" y="74051.5" />
  <rect width="1" height="1" x="8355.5" y="74051.5" />
  <rect width="1" height="1" x="8355.5" y="73173.5" />
  <rect width="1" height="1" x="7419.5" y="73173.5" />
  <rect width="1" height="1" x="7419.5" y="71901.5" />
  <rect width="1" height="1" x="7207.5" y="71901.5" />
  <rect width="1" height="1" x="7207.5" y="70980.5" />
  <rect width="1" height="1" x="6312.5" y="70980.5" />
  <rect width="1" height="1" x="6312.5" y="69529.5" />
  <rect width="1" height="1" x="6547.5" y="69529.5" />
  <rect width="1" height="1" x="6547.5" y="68560.5" />
  <rect width="1" height="1" x="5736.5" y="68560.5" />
  <rect width="1" height="1" x="5736.5" y="67492.5" />
  <rect width="1" height="1" x="5129.5" y="67492.5" />
  <rect width="1" height="1" x="5129.5" y="66440.5" />
  <rect width="1" height="1" x="4450.5" y="66440.5" />
  <rect width="1" height="1" x="4450.5" y="65196.5" />
  <rect width="1" height="1" x="4303.5" y="65196.5" />
  <rect width="1" height="1" x="4303.5" y="64070.5" />
  <rect width="1" height="1" x="3812.5" y="64070.5" />
  <rect width="1" height="1" x="3812.5" y="62732.5" />
  <rect width="1" height="1" x="4060.5" y="62732.5" />
  <rect width="1" height="1" x="4060.5" y="61562.5" />
  <rect width="1" height="1" x="3762.5" y="61562.5" />
  <rect width="1" height="1" x="3762.5" y="60525.5" />
  <rect width="1" height="1" x="2867.5" y="60525.5" />
  <rect width="1" height="1" x="2867.5" y="59319.5" />
  <rect width="1" height="1" x="2657.5" y="59319.5" />
  <rect width="1" height="1" x="2657.5" y="58002.5" />
  <rect width="1" height="1" x="3109.5" y="58002.5" />
  <rect width="1" height="1" x="3109.5" y="56911.5" />
  <rect width="1" height="1" x="2235.5" y="56911.5" />
  <rect width="1" height="1" x="2235.5" y="55611.5" />
  <rect width="1" height="1" x="2814.5" y="55611.5" />
  <rect width="1" height="1" x="2814.5" y="54462.5" />
  <rect width="1" height="1" x="2175.5" y="54462.5" />
  <rect width="1" height="1" x="2175.5" y="53255.5" />
  <rect width="1" height="1" x="1990.5" y="53255.5" />
  <rect width="1" height="1" x="1990.5" y="52026.5" />
  <rect width="1" height="1" x="2190.5" y="52026.5" />
  <rect width="1" height="1" x="2190.5" y="50821.5" />
  <rect width="1" height="1" x="1745.5" y="50821.5" />
  <rect width="1" height="1" x="1745.5" y="50371.5" />
  <rect width="1" height="1" x="94925.5" y="50371.5" />
  <rect width="1" height="1" x="94925.5" y="48372.5" />
  <rect width="1" height="1" x="1649.5" y="48372.5" />
  <rect width="1" height="1" x="1649.5" y="47150.5" />
  <rect width="1" height="1" x="1747.5" y="47150.5" />
  <rect width="1" height="1" x="1747.5" y="45958.5" />
  <rect width="1" height="1" x="2181.5" y="45958.5" />
  <rect width="1" height="1" x="2181.5" y="44723.5" />
  <rect width="1" height="1" x="2069.5" y="44723.5" />
  <rect width="1" height="1" x="2069.5" y="43481.5" />
  <rect width="1" height="1" x="1999.5" y="43481.5" />
  <rect width="1" height="1" x="1999.5" y="42351.5" />
  <rect width="1" height="1" x="2700.5" y="42351.5" />
  <rect width="1" height="1" x="2700.5" y="41170.5" />
  <rect width="1" height="1" x="2989.5" y="41170.5" />
  <rect width="1" height="1" x="2989.5" y="39905.5" />
  <rect width="1" height="1" x="2865.5" y="39905.5" />
  <rect width="1" height="1" x="2865.5" y="38737.5" />
  <rect width="1" height="1" x="3230.5" y="38737.5" />
  <rect width="1" height="1" x="3230.5" y="37619.5" />
  <rect width="1" height="1" x="3767.5" y="37619.5" />
  <rect width="1" height="1" x="3767.5" y="36461.5" />
  <rect width="1" height="1" x="4128.5" y="36461.5" />
  <rect width="1" height="1" x="4128.5" y="35395.5" />
  <rect width="1" height="1" x="4768.5" y="35395.5" />
  <rect width="1" height="1" x="4768.5" y="34028.5" />
  <rect width="1" height="1" x="4510.5" y="34028.5" />
  <rect width="1" height="1" x="4510.5" y="32909.5" />
  <rect width="1" height="1" x="5003.5" y="32909.5" />
  <rect width="1" height="1" x="5003.5" y="31795.5" />
  <rect width="1" height="1" x="5502.5" y="31795.5" />
  <rect width="1" height="1" x="5502.5" y="30543.5" />
  <rect width="1" height="1" x="5678.5" y="30543.5" />
  <rect width="1" height="1" x="5678.5" y="29789.5" />
  <rect width="1" height="1" x="6958.5" y="29789.5" />
  <rect width="1" height="1" x="6958.5" y="28476.5" />
  <rect width="1" height="1" x="7027.5" y="28476.5" />
  <rect width="1" height="1" x="7027.5" y="27437.5" />
  <rect width="1" height="1" x="7666.5" y="27437.5" />
  <rect width="1" height="1" x="7666.5" y="26257.5" />
  <rect width="1" height="1" x="8048.5" y="26257.5" />
  <rect width="1" height="1" x="8048.5" y="25546.5" />
  <rect width="1" height="1" x="9235.5" y="25546.5" />
  <rect width="1" height="1" x="9235.5" y="24497.5" />
  <rect width="1" height="1" x="9830.5" y="24497.5" />
  <rect width="1" height="1" x="9830.5" y="23394.5" />
  <rect width="1" height="1" x="10349.5" y="23394.5" />
  <rect width="1" height="1" x="10349.5" y="22053.5" />
  <rect width="1" height="1" x="10550.5" y="22053.5" />
  <rect width="1" height="1" x="10550.5" y="21179.5" />
  <rect width="1" height="1" x="11426.5" y="21179.5" />
  <rect width="1" height="1" x="11426.5" y="20297.5" />
  <rect width="1" height="1" x="12277.5" y="20297.5" />
  <rect width="1" height="1" x="12277.5" y="19274.5" />
  <rect width="1" height="1" x="12949.5" y="19274.5" />
  <rect width="1" height="1" x="12949.5" y="18388.5" />
  <rect width="1" height="1" x="13788.5" y="18388.5" />
  <rect width="1" height="1" x="13788.5" y="17358.5" />
  <rect width="1" height="1" x="14467.5" y="17358.5" />
  <rect width="1" height="1" x="14467.5" y="16785.5" />
  <rect width="1" height="1" x="15632.5" y="16785.5" />
  <rect width="1" height="1" x="15632.5" y="15458.5" />
  <rect width="1" height="1" x="16025.5" y="15458.5" />
  <rect width="1" height="1" x="16025.5" y="14914.5" />
  <rect width="1" height="1" x="17197.5" y="14914.5" />
  <rect width="1" height="1" x="17197.5" y="14288.5" />
  <rect width="1" height="1" x="18269.5" y="14288.5" />
  <rect width="1" height="1" x="18269.5" y="13256.5" />
  <rect width="1" height="1" x="18982.5" y="13256.5" />
  <rect width="1" height="1" x="18982.5" y="12898.5" />
  <rect width="1" height="1" x="20256.5" y="12898.5" />
  <rect width="1" height="1" x="20256.5" y="11475.5" />
  <rect width="1" height="1" x="20686.5" y="11475.5" />
  <rect width="1" height="1" x="20686.5" y="11225.5" />
  <rect width="1" height="1" x="22018.5" y="11225.5" />
  <rect width="1" height="1" x="22018.5" y="10136.5" />
  <rect width="1" height="1" x="22741.5" y="10136.5" />
  <rect width="1" height="1" x="22741.5" y="9364.5" />
  <rect width="1" height="1" x="23698.5" y="9364.5" />
  <rect width="1" height="1" x="23698.5" y="8664.5" />
  <rect width="1" height="1" x="24707.5" y="8664.5" />
  <rect width="1" height="1" x="24707.5" y="8555.5" />
  <rect width="1" height="1" x="26062.5" y="8555.5" />
  <rect width="1" height="1" x="26062.5" y="7608.5" />
  <rect width="1" height="1" x="26927.5" y="7608.5" />
  <rect width="1" height="1" x="26927.5" y="7485.5" />
  <rect width="1" height="1" x="28238.5" y="7485.5" />
  <rect width="1" height="1" x="28238.5" y="6653.5" />
  <rect width="1" height="1" x="29180.5" y="6653.5" />
  <rect width="1" height="1" x="29180.5" y="6165.5" />
  <rect width="1" height="1" x="30297.5" y="6165.5" />
  <rect width="1" height="1" x="30297.5" y="5930.5" />
  <rect width="1" height="1" x="31518.5" y="5930.5" />
  <rect width="1" height="1" x="31518.5" y="5377.5" />
  <rect width="1" height="1" x="32602.5" y="5377.5" />
  <rect width="1" height="1" x="32602.5" y="5290.5" />
  <rect width="1" height="1" x="33860.5" y="5290.5" />
  <rect width="1" height="1" x="33860.5" y="4882.5" />
  <rect width="1" height="1" x="34994.5" y="4882.5" />
  <rect width="1" height="1" x="34994.5" y="4409.5" />
  <rect width="1" height="1" x="36108.5" y="4409.5" />
  <rect width="1" height="1" x="36108.5" y="3348.5" />
  <rect width="1" height="1" x="37067.5" y="3348.5" />
  <rect width="1" height="1" x="37067.5" y="2951.5" />
  <rect width="1" height="1" x="38232.5" y="2951.5" />
  <rect width="1" height="1" x="38232.5" y="3323.5" />
  <rect width="1" height="1" x="39574.5" y="3323.5" />
  <rect width="1" height="1" x="39574.5" y="2538.5" />
  <rect width="1" height="1" x="40654.5" y="2538.5" />
  <rect width="1" height="1" x="40654.5" y="3046.5" />
  <rect width="1" height="1" x="41984.5" y="3046.5" />
  <rect width="1" height="1" x="41984.5" y="2018.5" />
  <rect width="1" height="1" x="43055.5" y="2018.5" />
  <rect width="1" height="1" x="43055.5" y="2588.5" />
  <rect width="1" height="1" x="44359.5" y="2588.5" />
  <rect width="1" height="1" x="44359.5" y="1840.5" />
  <rect width="1" height="1" x="45504.5" y="1840.5" />
  <rect width="1" height="1" x="45504.5" y="2454.5" />
  <rect width="1" height="1" x="46774.5" y="2454.5" />
  <rect width="1" height="1" x="46774.5" y="1705.5" />
  <rect width="1" height="1" x="47950.5" y="1705.5" />
  <rect width="1" height="1" x="47950.5" y="2281.5" />
  <rect width="1" height="1" x="49185.5" y="2281.5" />
  <rect width="1" height="1" x="49185.5" y="1768.5" />
  <rect width="1" height="1" x="50398.5" y="1768.5" />
  <rect width="1" height="1" x="50398.5" y="2441.5" />
  <rect width="1" height="1" x="51598.5" y="2441.5" />
  <rect width="1" height="1" x="51598.5" y="2359.5" />
  <rect width="1" height="1" x="52810.5" y="2359.5" />
  <rect width="1" height="1" x="52810.5" y="2428.5" />
  <rect width="1" height="1" x="54018.5" y="2428.5" />
  <rect width="1" height="1" x="54018.5" y="1924.5" />
  <rect width="1" height="1" x="55290.5" y="1924.5" />
  <rect width="1" height="1" x="55290.5" y="2649.5" />
  <rect width="1" height="1" x="56428.5" y="2649.5" />
  <rect width="1" height="1" x="56428.5" y="2306.5" />
  <rect width="1" height="1" x="57710.5" y="2306.5" />
  <rect width="1" height="1" x="57710.5" y="2656.5" />
  <rect width="1" height="1" x="58889.5" y="2656.5" />
  <rect width="1" height="1" x="58889.5" y="3005.5" />
  <rect width="1" height="1" x="60062.5" y="3005.5" />
  <rect width="1" height="1" x="60062.5" y="2862.5" />
  <rect width="1" height="1" x="61349.5" y="2862.5" />
  <rect width="1" height="1" x="61349.5" y="3205.5" />
  <rect width="1" height="1" x="62529.5" y="3205.5" />
  <rect width="1" height="1" x="62529.5" y="3936.5" />
  <rect width="1" height="1" x="63592.5" y="3936.5" />
  <rect width="1" height="1" x="63592.5" y="4277.5" />
  <rect width="1" height="1" x="64761.5" y="4277.5" />
  <rect width="1" height="1" x="64761.5" y="4356.5" />
  <rect width="1" height="1" x="66023.5" y="4356.5" />
  <rect width="1" height="1" x="66023.5" y="5362.5" />
  <rect width="1" height="1" x="66952.5" y="5362.5" />
  <rect width="1" height="1" x="66952.5" y="5728.5" />
  <rect width="1" height="1" x="68109.5" y="5728.5" />
  <rect width="1" height="1" x="68109.5" y="6223.5" />
  <rect width="1" height="1" x="69215.5" y="6223.5" />
  <rect width="1" height="1" x="69215.5" y="6703.5" />
  <rect width="1" height="1" x="70328.5" y="6703.5" />
  <rect width="1" height="1" x="70328.5" y="7395.5" />
  <rect width="1" height="1" x="71336.5" y="7395.5" />
  <rect width="1" height="1" x="71336.5" y="8021.5" />
  <rect width="1" height="1" x="72370.5" y="8021.5" />
  <rect width="1" height="1" x="72370.5" y="7911.5" />
  <rect width="1" height="1" x="73817.5" y="7911.5" />
  <rect width="1" height="1" x="73817.5" y="8886.5" />
  <rect width="1" height="1" x="74661.5" y="8886.5" />
  <rect width="1" height="1" x="74661.5" y="9894.5" />
  <rect width="1" height="1" x="75459.5" y="9894.5" />
  <rect width="1" height="1" x="75459.5" y="10340.5" />
  <rect width="1" height="1" x="76609.5" y="10340.5" />
  <rect width="1" height="1" x="76609.5" y="10915.5" />
  <rect width="1" height="1" x="77685.5" y="10915.5" />
  <rect width="1" height="1" x="77685.5" y="11165.5" />
  <rect width="1" height="1" x="79013.5" y="11165.5" />
  <rect width="1" height="1" x="79013.5" y="12140.5" />
  <rect width="1" height="1" x="79808.5" y="12140.5" />
  <rect width="1" height="1" x="79808.5" y="12985.5" />
  <rect width="1" height="1" x="80693.5" y="12985.5" />
  <rect width="1" height="1" x="80693.5" y="13675.5" />
  <rect width="1" height="1" x="81708.5" y="13675.5" />
  <rect width="1" height="1" x="81708.5" y="14452.5" />
  <rect width="1" height="1" x="82653.5" y="14452.5" />
  <rect width="1" height="1" x="82653.5" y="15684.5" />
  <rect width="1" height="1" x="83162.5" y="15684.5" />
  <rect width="1" height="1" x="83162.5" y="16110.5" />
  <rect width="1" height="1" x="84453.5" y="16110.5" />
  <rect width="1" height="1" x="84453.5" y="17060.5" />
  <rect width="1" height="1" x="85230.5" y="17060.5" />
  <rect width="1" height="1" x="85230.5" y="18136.5" />
  <rect width="1" height="1" x="85859.5" y="18136.5" />
  <rect width="1" height="1" x="85859.5" y="19056.5" />
  <rect width="1" height="1" x="86652.5" y="19056.5" />
  <rect width="1" height="1" x="86652.5" y="19728.5" />
  <rect width="1" height="1" x="87757.5" y="19728.5" />
  <rect width="1" height="1" x="87757.5" y="20934.5" />
  <rect width="1" height="1" x="88196.5" y="20934.5" />
  <rect width="1" height="1" x="88196.5" y="22018.5" />
  <rect width="1" height="1" x="88773.5" y="22018.5" />
  <rect width="1" height="1" x="88773.5" y="23061.5" />
  <rect width="1" height="1" x="89393.5" y="23061.5" />
  <rect width="1" height="1" x="89393.5" y="23669.5" />
  <rect width="1" height="1" x="90678.5" y="23669.5" />
  <rect width="1" height="1" x="90678.5" y="25125.5" />
  <rect width="1" height="1" x="90651.5" y="25125.5" />
  <rect width="1" height="1" x="90651.5" y="26102.5" />
  <rect width="1" height="1" x="91373.5" y="26102.5" />
  <rect width="1" height="1" x="91373.5" y="27202.5" />
  <rect width="1" height="1" x="91884.5" y="27202.5" />
  <rect width="1" height="1" x="91884.5" y="27988.5" />
  <rect width="1" height="1" x="93000.5" y="27988.5" />
  <rect width="1" height="1" x="93000.5" y="29415.5" />
  <rect width="1" height="1" x="92855.5" y="29415.5" />
  <rect width="1" height="1" x="92855.5" y="30166.5" />
  <rect width="1" height="1" x="94123.5" y="30166.5" />
  <rect width="1" height="1" x="94123.5" y="31507.5" />
  <rect width="1" height="1" x="94094.5" y="31507.5" />
  <rect width="1" height="1" x="94094.5" y="32410.5" />
  <rect width="1" height="1" x="95111.5" y="32410.5" />
  <rect width="1" height="1" x="95111.5" y="33828.5" />
  <rect width="1" height="1" x="94796.5" y="33828.5" />
  <rect width="1" height="1" x="94796.5" y="34838.5" />
  <rect width="1" height="1" x="95583.5" y="34838.5" />
  <rect width="1" height="1" x="95583.5" y="35889.5" />
  <rect width="1" height="1" x="96308.5" y="35889.5" />
  <rect width="1" height="1" x="96308.5" y="37145.5" />
  <rect width="1" height="1" x="96367.5" y="37145.5" />
  <rect width="1" height="1" x="96367.5" y="38358.5" />
  <rect width="1" height="1" x="96543.5" y="38358.5" />
  <rect width="1" height="1" x="96543.5" y="39539.5" />
  <rect width="1" height="1" x="96829.5" y="39539.5" />
  <rect width="1" height="1" x="96829.5" y="40763.5" />
  <rect width="1" height="1" x="96908.5" y="40763.5" />
  <rect width="1" height="1" x="96908.5" y="41927.5" />
  <rect width="1" height="1" x="97288.5" y="41927.5" />
  <rect width="1" height="1" x="97288.5" y="43152.5" />
  <rect width="1" height="1" x="97304.5" y="43152.5" />
  <rect width="1" height="1" x="97304.5" y="44319.5" />
  <rect width="1" height="1" x="97744.5" y="44319.5" />
  <rect width="1" height="1" x="97744.5" y="45562.5" />
  <rect width="1" height="1" x="97540.5" y="45562.5" />
  <rect width="1" height="1" x="97540.5" y="46735.5" />
  <rect width="1" height="1" x="98121.5" y="46735.5" />
  <rect width="1" height="1" x="98121.5" y="47963.5" />
  <rect width="1" height="1" x="98002.5" y="47963.5" />
  <rect width="1" height="1" x="98002.5" y="49175.5" />
  <rect width="1" height="1" x="98318.5" y="49175.5" />
  <rect width="1" height="1" x="98318.5" y="50396.5" />
</g>
</svg>
